<svg width="23" height="25" viewBox="0 0 23 25" xmlns="http://www.w3.org/2000/svg">
<path
    d="M0.875 21.9168V9.38471C0.875 8.97924 0.965702 8.59511 1.14711 8.23233C1.32851 7.86954 1.57926 7.57078 1.89936 7.33604L9.96345 1.26073C10.4109 0.919266 10.9224 0.748535 11.4978 0.748535C12.0731 0.748535 12.586 0.919266 13.0365 1.26073L21.1006 7.33604C21.4207 7.57078 21.6714 7.86954 21.8528 8.23233C22.0342 8.59511 22.1249 8.97924 22.1249 9.38471V21.9168C22.1249 22.4961 21.9156 22.9951 21.497 23.4137C21.0783 23.8324 20.5793 24.0417 20 24.0417H15.4775C15.1147 24.0417 14.8106 23.919 14.5652 23.6736C14.3198 23.4282 14.1971 23.1241 14.1971 22.7613V15.8414C14.1971 15.4786 14.0744 15.1745 13.8289 14.9291C13.5835 14.6837 13.2794 14.561 12.9166 14.561H10.0833C9.72051 14.561 9.41641 14.6837 9.171 14.9291C8.92556 15.1745 8.80284 15.4786 8.80284 15.8414V22.7613C8.80284 23.1241 8.68014 23.4282 8.43472 23.6736C8.18931 23.919 7.88521 24.0417 7.52242 24.0417H2.99996C2.42059 24.0417 1.9216 23.8324 1.50297 23.4137C1.08432 22.9951 0.875 22.4961 0.875 21.9168Z"
  />
</svg>
